<svg width="1440" height="230" viewBox="0 0 1440 230" fill="none" xmlns="http://www.w3.org/2000/svg">
<path d="M0 134L34.3 102C68.6 70 137 6.00001 206 0.700012C274.3 -4.99999 343 49 411 54C480 59 549 17 617 32.7C685.7 49 754 123 823 150C891.4 177 960 155 1029 134C1097.1 113 1166 91 1234 70C1302.9 49 1371 27 1406 16.7L1440 6.00002V230H1405.7C1371.4 230 1303 230 1234 230C1165.7 230 1097 230 1029 230C960 230 891 230 823 230C754.3 230 686 230 617 230C548.6 230 480 230 411 230C342.9 230 274 230 206 230C137.1 230 69 230 34 230H0V134Z" fill="white"/>
</svg>
