<svg width="1441" height="440" viewBox="0 0 1441 440" fill="none" xmlns="http://www.w3.org/2000/svg">
<path d="M0.5 411L34.8 379C69.1 347 137.5 283 206.5 277.7C274.8 272 343.5 326 411.5 331C480.5 336 549.5 294 617.5 309.7C686.2 326 754.5 400 823.5 427C891.9 454 960.5 432 1029.5 411C1097.6 390 1166.5 368 1234.5 347C1303.4 326 1371.5 304 1406.5 293.7L1440.5 283V0.5H1406.2C1371.9 0.5 1303.5 0.5 1234.5 0.5C1166.2 0.5 1097.5 0.5 1029.5 0.5C960.5 0.5 891.5 0.5 823.5 0.5C754.8 0.5 686.5 0.5 617.5 0.5C549.1 0.5 480.5 0.5 411.5 0.5C343.4 0.5 274.5 0.5 206.5 0.5C137.6 0.5 69.5 0.5 34.5 0.5H0.5L0.5 411Z" fill="#292A2D"/>
</svg>
